<svg xmlns="http://www.w3.org/2000/svg" xmlns:svgjs="http://svgjs.com/svgjs" xmlns:xlink="http://www.w3.org/1999/xlink" width="288" height="288"><svg xmlns="http://www.w3.org/2000/svg" width="288" height="288" enable-background="new 0 0 32 32" viewBox="0 0 32 32"><path fill="#fff" d="M25.3,26.6H6.7c-1.5,0-2.7-1.2-2.7-2.7v-0.8c0-1.5,1.2-2.7,2.7-2.7c0.4,0,0.7-0.3,0.7-0.7v-5.1C7.4,9.9,11.2,6,16,6
			c4.8,0,8.6,3.9,8.6,8.6v5.1c0,0.4,0.3,0.7,0.7,0.7c1.5,0,2.7,1.2,2.7,2.7v0.8C28,25.4,26.8,26.6,25.3,26.6z M16,8
			c-3.6,0-6.6,3-6.6,6.6v5.1c0,1.5-1.2,2.7-2.7,2.7c-0.4,0-0.7,0.3-0.7,0.7v0.8c0,0.4,0.3,0.7,0.7,0.7h18.6c0.4,0,0.7-0.3,0.7-0.7
			v-0.8c0-0.4-0.3-0.7-0.7-0.7c-1.5,0-2.7-1.2-2.7-2.7v-5.1C22.6,11,19.6,8,16,8z" class="color000 svgShape"/><path fill="#fff" d="M16 30c-2.4 0-4.4-2-4.4-4.4 0-.6.4-1 1-1h0c.6 0 1 .4 1 1 0 1.3 1.1 2.4 2.4 2.4 1.3 0 2.4-1.1 2.4-2.4 0-.6.4-1 1-1 0 0 0 0 0 0 .6 0 1 .4 1 1C20.4 28 18.4 30 16 30zM16 8c-1.7 0-3-1.3-3-3s1.3-3 3-3 3 1.3 3 3S17.7 8 16 8zM16 4c-.6 0-1 .4-1 1s.4 1 1 1 1-.4 1-1S16.6 4 16 4z" class="color000 svgShape"/></svg></svg>