<svg xmlns="http://www.w3.org/2000/svg" width="20.938" height="20.938" viewBox="0 0 20.938 20.938">
  <path id="_11" data-name="11" d="M12.5,56.9a2.617,2.617,0,1,1-2.617,2.617A2.616,2.616,0,0,1,12.5,56.9Zm0,11.215c3.7,0,7.6,1.819,7.6,2.617V72.1H4.9V70.73C4.9,69.933,8.8,68.114,12.5,68.114Zm0-13.582a4.984,4.984,0,1,0,4.984,4.984A4.983,4.983,0,0,0,12.5,54.531Zm0,11.215c-3.327,0-9.969,1.67-9.969,4.984v3.738H22.469V70.73C22.469,67.416,15.827,65.746,12.5,65.746Z" transform="translate(-2.031 -54.031)" fill="#d7d9de" stroke="#707070" stroke-width="1"/>
</svg>
